# Made in Blockbench 5.2.1
mtllib materials.mtl

o headwear
v 0.28125 2.03125 0.28125
v 0.28125 2.03125 -0.28125
v 0.28125 1.46875 0.28125
v 0.28125 1.46875 -0.28125
v -0.28125 2.03125 -0.28125
v -0.28125 2.03125 0.28125
v -0.28125 1.46875 -0.28125
v -0.28125 1.46875 0.28125
vt 0.625 0.875
vt 0.75 0.875
vt 0.75 0.75
vt 0.625 0.75
vt 0.5 0.875
vt 0.625 0.875
vt 0.625 0.75
vt 0.5 0.75
vt 0.875 0.875
vt 1 0.875
vt 1 0.75
vt 0.875 0.75
vt 0.75 0.875
vt 0.875 0.875
vt 0.875 0.75
vt 0.75 0.75
vt 0.75 0.875
vt 0.625 0.875
vt 0.625 1
vt 0.75 1
vt 0.875 1
vt 0.75 1
vt 0.75 0.875
vt 0.875 0.875
vn 0 0 -1
vn 1 0 0
vn 0 0 1
vn -1 0 0
vn 0 1 0
vn 0 -1 0
usemtl m_711baa8b-e285-70ee-fc17-d4397ecf5eae
f 4/4/1 7/3/1 5/2/1 2/1/1
f 3/8/2 4/7/2 2/6/2 1/5/2
f 8/12/3 3/11/3 1/10/3 6/9/3
f 7/16/4 8/15/4 6/14/4 5/13/4
f 6/20/5 1/19/5 2/18/5 5/17/5
f 7/24/6 4/23/6 3/22/6 8/21/6
o head
v 0.25 2 0.25
v 0.25 2 -0.25
v 0.25 1.5 0.25
v 0.25 1.5 -0.25
v -0.25 2 -0.25
v -0.25 2 0.25
v -0.25 1.5 -0.25
v -0.25 1.5 0.25
vt 0.125 0.875
vt 0.25 0.875
vt 0.25 0.75
vt 0.125 0.75
vt 0 0.875
vt 0.125 0.875
vt 0.125 0.75
vt 0 0.75
vt 0.375 0.875
vt 0.5 0.875
vt 0.5 0.75
vt 0.375 0.75
vt 0.25 0.875
vt 0.375 0.875
vt 0.375 0.75
vt 0.25 0.75
vt 0.25 0.875
vt 0.125 0.875
vt 0.125 1
vt 0.25 1
vt 0.375 1
vt 0.25 1
vt 0.25 0.875
vt 0.375 0.875
vn 0 0 -1
vn 1 0 0
vn 0 0 1
vn -1 0 0
vn 0 1 0
vn 0 -1 0
usemtl m_711baa8b-e285-70ee-fc17-d4397ecf5eae
f 12/28/7 15/27/7 13/26/7 10/25/7
f 11/32/8 12/31/8 10/30/8 9/29/8
f 16/36/9 11/35/9 9/34/9 14/33/9
f 15/40/10 16/39/10 14/38/10 13/37/10
f 14/44/11 9/43/11 10/42/11 13/41/11
f 15/48/12 12/47/12 11/46/12 16/45/12
o body
v 0.25 1.5 0.125
v 0.25 1.5 -0.125
v 0.25 0.75 0.125
v 0.25 0.75 -0.125
v -0.25 1.5 -0.125
v -0.25 1.5 0.125
v -0.25 0.75 -0.125
v -0.25 0.75 0.125
vt 0.3125 0.6875
vt 0.4375 0.6875
vt 0.4375 0.5
vt 0.3125 0.5
vt 0.25 0.6875
vt 0.3125 0.6875
vt 0.3125 0.5
vt 0.25 0.5
vt 0.5 0.6875
vt 0.625 0.6875
vt 0.625 0.5
vt 0.5 0.5
vt 0.4375 0.6875
vt 0.5 0.6875
vt 0.5 0.5
vt 0.4375 0.5
vt 0.4375 0.6875
vt 0.3125 0.6875
vt 0.3125 0.75
vt 0.4375 0.75
vt 0.5625 0.75
vt 0.4375 0.75
vt 0.4375 0.6875
vt 0.5625 0.6875
vn 0 0 -1
vn 1 0 0
vn 0 0 1
vn -1 0 0
vn 0 1 0
vn 0 -1 0
usemtl m_711baa8b-e285-70ee-fc17-d4397ecf5eae
f 20/52/13 23/51/13 21/50/13 18/49/13
f 19/56/14 20/55/14 18/54/14 17/53/14
f 24/60/15 19/59/15 17/58/15 22/57/15
f 23/64/16 24/63/16 22/62/16 21/61/16
f 22/68/17 17/67/17 18/66/17 21/65/17
f 23/72/18 20/71/18 19/70/18 24/69/18
o jacket
v 0.265625 1.515625 0.140625
v 0.265625 1.515625 -0.140625
v 0.265625 0.734375 0.140625
v 0.265625 0.734375 -0.140625
v -0.265625 1.515625 -0.140625
v -0.265625 1.515625 0.140625
v -0.265625 0.734375 -0.140625
v -0.265625 0.734375 0.140625
vt 0.3125 0.4375
vt 0.4375 0.4375
vt 0.4375 0.25
vt 0.3125 0.25
vt 0.25 0.4375
vt 0.3125 0.4375
vt 0.3125 0.25
vt 0.25 0.25
vt 0.5 0.4375
vt 0.625 0.4375
vt 0.625 0.25
vt 0.5 0.25
vt 0.4375 0.4375
vt 0.5 0.4375
vt 0.5 0.25
vt 0.4375 0.25
vt 0.4375 0.4375
vt 0.3125 0.4375
vt 0.3125 0.5
vt 0.4375 0.5
vt 0.5625 0.5
vt 0.4375 0.5
vt 0.4375 0.4375
vt 0.5625 0.4375
vn 0 0 -1
vn 1 0 0
vn 0 0 1
vn -1 0 0
vn 0 1 0
vn 0 -1 0
usemtl m_711baa8b-e285-70ee-fc17-d4397ecf5eae
f 28/76/19 31/75/19 29/74/19 26/73/19
f 27/80/20 28/79/20 26/78/20 25/77/20
f 32/84/21 27/83/21 25/82/21 30/81/21
f 31/88/22 32/87/22 30/86/22 29/85/22
f 30/92/23 25/91/23 26/90/23 29/89/23
f 31/96/24 28/95/24 27/94/24 32/93/24
o right_sleeve
v 0.4894420817518442 1.1886222308007595 -0.03306809230418872
v 0.46068613305631745 1.3307753660805846 0.20790315918597557
v 0.7589830584296076 1.8338217463940398 -0.38151724134862736
v 0.7302271097340807 1.9759748816738647 -0.14054598985846312
v 0.1982763106491307 1.4010878660805846 0.13511030275089164
v 0.22703225934465748 1.2589347308007595 -0.10586094873927265
v 0.467817287326894 2.0462873816738645 -0.21333884629354705
v 0.49657323602242076 1.9041342463940398 -0.4543100977837113
vt 0.6875 0.4375
vt 0.75 0.4375
vt 0.75 0.25
vt 0.6875 0.25
vt 0.625 0.4375
vt 0.6875 0.4375
vt 0.6875 0.25
vt 0.625 0.25
vt 0.8125 0.4375
vt 0.875 0.4375
vt 0.875 0.25
vt 0.8125 0.25
vt 0.75 0.4375
vt 0.8125 0.4375
vt 0.8125 0.25
vt 0.75 0.25
vt 0.75 0.4375
vt 0.6875 0.4375
vt 0.6875 0.5
vt 0.75 0.5
vt 0.8125 0.5
vt 0.75 0.5
vt 0.75 0.4375
vt 0.8125 0.4375
vn -0.10224337313965072 0.505433369883822 0.8567866719650289
vn 0.9330127018922194 -0.25 0.25881904510252085
vn 0.10224337313965072 -0.505433369883822 -0.8567866719650289
vn -0.9330127018922194 0.25 -0.25881904510252085
vn -0.34501245014753706 -0.8258553799593994 0.44601491077688155
vn 0.34501245014753706 0.8258553799593994 -0.44601491077688155
usemtl m_711baa8b-e285-70ee-fc17-d4397ecf5eae
f 36/100/25 39/99/25 37/98/25 34/97/25
f 35/104/26 36/103/26 34/102/26 33/101/26
f 40/108/27 35/107/27 33/106/27 38/105/27
f 39/112/28 40/111/28 38/110/28 37/109/28
f 38/116/29 33/115/29 34/114/29 37/113/29
f 39/120/30 36/119/30 35/118/30 40/117/30
o right_arm
v 0.4786570251130265 1.2133298675170598 -0.030693831115350734
v 0.4530961818281138 1.3396882099880152 0.1835028368759063
v 0.7374163627236793 1.832721402486609 -0.3652050141980119
v 0.7118555194387666 1.9590797449575643 -0.15100834620675485
v 0.21984300635505893 1.4021882099880152 0.11879807560027611
v 0.24540384963997164 1.2758298675170598 -0.09539859239098092
v 0.4786023439657117 2.021579744957564 -0.21571310748238492
v 0.5041631872506244 1.895221402486609 -0.42990977547364206
vt 0.6875 0.6875
vt 0.75 0.6875
vt 0.75 0.5
vt 0.6875 0.5
vt 0.625 0.6875
vt 0.6875 0.6875
vt 0.6875 0.5
vt 0.625 0.5
vt 0.8125 0.6875
vt 0.875 0.6875
vt 0.875 0.5
vt 0.8125 0.5
vt 0.75 0.6875
vt 0.8125 0.6875
vt 0.8125 0.5
vt 0.75 0.5
vt 0.75 0.6875
vt 0.6875 0.6875
vt 0.6875 0.75
vt 0.75 0.75
vt 0.8125 0.75
vt 0.75 0.75
vt 0.75 0.6875
vt 0.8125 0.6875
vn -0.10224337313965072 0.505433369883822 0.8567866719650289
vn 0.9330127018922194 -0.25 0.25881904510252085
vn 0.10224337313965072 -0.505433369883822 -0.8567866719650289
vn -0.9330127018922194 0.25 -0.25881904510252085
vn -0.34501245014753706 -0.8258553799593994 0.44601491077688155
vn 0.34501245014753706 0.8258553799593994 -0.44601491077688155
usemtl m_711baa8b-e285-70ee-fc17-d4397ecf5eae
f 44/124/31 47/123/31 45/122/31 42/121/31
f 43/128/32 44/127/32 42/126/32 41/125/32
f 48/132/33 43/131/33 41/130/33 46/129/33
f 47/136/34 48/135/34 46/134/34 45/133/34
f 46/140/35 41/139/35 42/138/35 45/137/35
f 47/144/36 44/143/36 43/142/36 48/141/36
o right_pants
v 0.1790935212406532 0.5635588693713048 0.15117939078412612
v 0.2023888552798555 0.8233999878901042 0.04610092943784805
v 0.3353154972891359 0.2645874378360784 -0.553492405036655
v 0.35861083132833815 0.5244285563548778 -0.6585708663829329
v -0.07219439672262576 0.8233999878901042 -0.01477271198224317
v -0.09548973076182807 0.5635588693713048 0.09030574936403468
v 0.08402757932585692 0.5244285563548778 -0.7194445078030244
v 0.06073224528665462 0.2645874378360784 -0.6143660464567464
vt 0.0625 0.4375
vt 0.125 0.4375
vt 0.125 0.25
vt 0.0625 0.25
vt 0 0.4375
vt 0.0625 0.4375
vt 0.0625 0.25
vt 0 0.25
vt 0.1875 0.4375
vt 0.25 0.4375
vt 0.25 0.25
vt 0.1875 0.25
vt 0.125 0.4375
vt 0.1875 0.4375
vt 0.1875 0.25
vt 0.125 0.25
vt 0.125 0.4375
vt 0.0625 0.4375
vt 0.0625 0.5
vt 0.125 0.5
vt 0.1875 0.5
vt 0.125 0.5
vt 0.125 0.4375
vt 0.1875 0.4375
vn 0.08282785436160815 0.9238795325112868 -0.37361230700898834
vn 0.9762960071199335 0 0.21643961393810293
vn -0.08282785436160815 -0.9238795325112868 0.37361230700898834
vn -0.9762960071199335 0 -0.21643961393810293
vn -0.19996412934205784 0.38268343236508984 0.9019798986505999
vn 0.19996412934205784 -0.38268343236508984 -0.9019798986505999
usemtl m_711baa8b-e285-70ee-fc17-d4397ecf5eae
f 52/148/37 55/147/37 53/146/37 50/145/37
f 51/152/38 52/151/38 50/150/38 49/149/38
f 56/156/39 51/155/39 49/154/39 54/153/39
f 55/160/40 56/159/40 54/158/40 53/157/40
f 54/164/41 49/163/41 50/162/41 53/161/41
f 55/168/42 52/167/42 51/166/42 56/165/42
o right_leg
v 0.16825752087477402 0.5720150584360891 0.1278663936029122
v 0.18896448446517605 0.8029849415639108 0.03446331685066506
v 0.3182306178813174 0.2850024841622718 -0.5486185303850376
v 0.33893758147171943 0.5159723672900934 -0.6420216071372847
v -0.05510951731480729 0.8029849415639108 -0.019646586633860652
v -0.07581648090520932 0.5720150584360891 0.07375649011838648
v 0.09486357969173609 0.5159723672900934 -0.6961315106218104
v 0.07415661610133406 0.2850024841622718 -0.6027284338695633
vt 0.0625 0.6875
vt 0.125 0.6875
vt 0.125 0.5
vt 0.0625 0.5
vt 0 0.6875
vt 0.0625 0.6875
vt 0.0625 0.5
vt 0 0.5
vt 0.1875 0.6875
vt 0.25 0.6875
vt 0.25 0.5
vt 0.1875 0.5
vt 0.125 0.6875
vt 0.1875 0.6875
vt 0.1875 0.5
vt 0.125 0.5
vt 0.125 0.6875
vt 0.0625 0.6875
vt 0.0625 0.75
vt 0.125 0.75
vt 0.1875 0.75
vt 0.125 0.75
vt 0.125 0.6875
vt 0.1875 0.6875
vn 0.08282785436160815 0.9238795325112868 -0.37361230700898834
vn 0.9762960071199335 0 0.21643961393810293
vn -0.08282785436160815 -0.9238795325112868 0.37361230700898834
vn -0.9762960071199335 0 -0.21643961393810293
vn -0.19996412934205784 0.38268343236508984 0.9019798986505999
vn 0.19996412934205784 -0.38268343236508984 -0.9019798986505999
usemtl m_711baa8b-e285-70ee-fc17-d4397ecf5eae
f 60/172/43 63/171/43 61/170/43 58/169/43
f 59/176/44 60/175/44 58/174/44 57/173/44
f 64/180/45 59/179/45 57/178/45 62/177/45
f 63/184/46 64/183/46 62/182/46 61/181/46
f 62/188/47 57/187/47 58/186/47 61/185/47
f 63/192/48 60/191/48 59/190/48 64/189/48
o left_pants
v 0.03560033601391577 0.5606997899414452 0.08894846082581542
v 0.0107037128229035 0.824988339537482 -0.003967001859939923
v -0.1544077474249076 0.2934965529682664 -0.62017136041666
v -0.17930437061591983 0.5577851025643031 -0.7130868231024153
v -0.2609629258208969 0.824988339537482 0.06882585457514401
v -0.2360663026298847 0.5606997899414452 0.16174131726089935
v -0.4509710092597203 0.5577851025643031 -0.6402939666673314
v -0.426074386068708 0.2934965529682664 -0.5473785039815761
vt 0.0625 0.1875
vt 0.125 0.1875
vt 0.125 0
vt 0.0625 0
vt 0 0.1875
vt 0.0625 0.1875
vt 0.0625 0
vt 0 0
vt 0.1875 0.1875
vt 0.25 0.1875
vt 0.25 0
vt 0.1875 0
vt 0.125 0.1875
vt 0.1875 0.1875
vt 0.1875 0
vt 0.125 0
vt 0.125 0.1875
vt 0.0625 0.1875
vt 0.0625 0.25
vt 0.125 0.25
vt 0.1875 0.25
vt 0.125 0.25
vt 0.125 0.1875
vt 0.1875 0.1875
vn -0.08852132690137689 0.9396926207859084 -0.3303660895493523
vn 0.9659258262890683 -1.387778780781446e-17 -0.25881904510252074
vn 0.08852132690137689 -0.9396926207859084 0.3303660895493523
vn -0.9659258262890683 1.387778780781446e-17 0.25881904510252074
vn 0.24321034680169387 0.34202014332566877 0.9076733711903686
vn -0.24321034680169387 -0.34202014332566877 -0.9076733711903686
usemtl m_711baa8b-e285-70ee-fc17-d4397ecf5eae
f 68/196/49 71/195/49 69/194/49 66/193/49
f 67/200/50 68/199/50 66/198/50 65/197/50
f 72/204/51 67/203/51 65/202/51 70/201/51
f 71/208/52 72/207/52 70/206/52 69/205/52
f 70/212/53 65/211/53 66/210/53 69/209/53
f 71/216/54 68/215/54 67/214/54 72/213/54
o left_leg
v 0.015324437576538591 0.5700384224017614 0.07364814183148416
v -0.006805894148805641 0.8049615775982386 -0.008943380555853975
v -0.16708332252473182 0.3135233149075098 -0.6071068865612922
v -0.18921365425007605 0.5484464701039868 -0.6896984089486303
v -0.24828735072107272 0.8049615775982386 0.05576138071977621
v -0.2261570189957285 0.5700384224017614 0.13835290310711434
v -0.43069511082234313 0.5484464701039868 -0.6249936476730001
v -0.4085647790969989 0.3135233149075098 -0.5424021252856621
vt 0.3125 0.1875
vt 0.375 0.1875
vt 0.375 0
vt 0.3125 0
vt 0.25 0.1875
vt 0.3125 0.1875
vt 0.3125 0
vt 0.25 0
vt 0.4375 0.1875
vt 0.5 0.1875
vt 0.5 0
vt 0.4375 0
vt 0.375 0.1875
vt 0.4375 0.1875
vt 0.4375 0
vt 0.375 0
vt 0.375 0.1875
vt 0.3125 0.1875
vt 0.3125 0.25
vt 0.375 0.25
vt 0.4375 0.25
vt 0.375 0.25
vt 0.375 0.1875
vt 0.4375 0.1875
vn -0.08852132690137689 0.9396926207859084 -0.3303660895493523
vn 0.9659258262890683 -1.387778780781446e-17 -0.25881904510252074
vn 0.08852132690137689 -0.9396926207859084 0.3303660895493523
vn -0.9659258262890683 1.387778780781446e-17 0.25881904510252074
vn 0.24321034680169387 0.34202014332566877 0.9076733711903686
vn -0.24321034680169387 -0.34202014332566877 -0.9076733711903686
usemtl m_711baa8b-e285-70ee-fc17-d4397ecf5eae
f 76/220/55 79/219/55 77/218/55 74/217/55
f 75/224/56 76/223/56 74/222/56 73/221/56
f 80/228/57 75/227/57 73/226/57 78/225/57
f 79/232/58 80/231/58 78/230/58 77/229/58
f 78/236/59 73/235/59 74/234/59 77/233/59
f 79/240/60 76/239/60 75/238/60 80/237/60
o left_sleeve
v -0.19235126540850755 1.2763261951530893 -0.1055441646436649
v -0.2185921991789836 1.4251459257753822 0.13165967949120916
v -0.30676797449076165 1.9252155972317655 -0.5253094836646213
v -0.33300890826123763 2.0740353278540584 -0.2881056395297472
v -0.49556937971366705 1.3763073758065583 0.13165967949120916
v -0.46932844594319106 1.2274876451842653 -0.1055441646436649
v -0.6099860887959212 2.0251967778852342 -0.2881056395297472
v -0.5837451550254451 1.8763770472629413 -0.5253094836646213
vt 0.8125 0.1875
vt 0.875 0.1875
vt 0.875 0
vt 0.8125 0
vt 0.75 0.1875
vt 0.8125 0.1875
vt 0.8125 0
vt 0.75 0
vt 0.9375 0.1875
vt 1 0.1875
vt 1 0
vt 0.9375 0
vt 0.875 0.1875
vt 0.9375 0.1875
vt 0.9375 0
vt 0.875 0
vt 0.875 0.1875
vt 0.8125 0.1875
vt 0.8125 0.25
vt 0.875 0.25
vt 0.9375 0.25
vt 0.875 0.25
vt 0.875 0.1875
vt 0.9375 0.1875
vn -0.09330109785058141 0.5291368199903752 0.8433914458128855
vn 0.9848077530122081 0.17364817766693033 0
vn 0.09330109785058141 -0.5291368199903752 -0.8433914458128855
vn -0.9848077530122081 -0.17364817766693033 0
vn 0.14645338762528523 -0.8305784346607054 0.5372996083468242
vn -0.14645338762528523 0.8305784346607054 -0.5372996083468242
usemtl m_711baa8b-e285-70ee-fc17-d4397ecf5eae
f 84/244/61 87/243/61 85/242/61 82/241/61
f 83/248/62 84/247/62 82/246/62 81/245/62
f 88/252/63 83/251/63 81/250/63 86/249/63
f 87/256/64 88/255/64 86/254/64 85/253/64
f 86/260/65 81/259/65 82/258/65 85/257/65
f 87/264/66 84/263/66 83/262/66 88/261/66
o left_arm
v -0.21148505038488372 1.2948584932309668 -0.10076147968325766
v -0.23481032484752906 1.4271426982285607 0.11008638176996377
v -0.32132509110384766 1.9177923192264956 -0.5037361859433758
v -0.344650365566493 2.0500765242240897 -0.29288832449015434
v -0.4810122631005811 1.383730653811828 0.11008638176996377
v -0.4576869886379358 1.251446448814234 -0.10076147968325766
v -0.590852303819545 2.006664479807357 -0.29288832449015434
v -0.5675270293568997 1.874380274809763 -0.5037361859433758
vt 0.5625 0.1875
vt 0.625 0.1875
vt 0.625 0
vt 0.5625 0
vt 0.5 0.1875
vt 0.5625 0.1875
vt 0.5625 0
vt 0.5 0
vt 0.6875 0.1875
vt 0.75 0.1875
vt 0.75 0
vt 0.6875 0
vt 0.625 0.1875
vt 0.6875 0.1875
vt 0.6875 0
vt 0.625 0
vt 0.625 0.1875
vt 0.5625 0.1875
vt 0.5625 0.25
vt 0.625 0.25
vt 0.6875 0.25
vt 0.625 0.25
vt 0.625 0.1875
vt 0.6875 0.1875
vn -0.09330109785058141 0.5291368199903752 0.8433914458128855
vn 0.9848077530122081 0.17364817766693033 0
vn 0.09330109785058141 -0.5291368199903752 -0.8433914458128855
vn -0.9848077530122081 -0.17364817766693033 0
vn 0.14645338762528523 -0.8305784346607054 0.5372996083468242
vn -0.14645338762528523 0.8305784346607054 -0.5372996083468242
usemtl m_711baa8b-e285-70ee-fc17-d4397ecf5eae
f 92/268/67 95/267/67 93/266/67 90/265/67
f 91/272/68 92/271/68 90/270/68 89/269/68
f 96/276/69 91/275/69 89/274/69 94/273/69
f 95/280/70 96/279/70 94/278/70 93/277/70
f 94/284/71 89/283/71 90/282/71 93/281/71
f 95/288/72 92/287/72 91/286/72 96/285/72
o cape
v -0.3125 1.5 0.12500000000000003
v -0.3125 1.5 0.18750000000000006
v -0.3125 0.5 0.12500000000000003
v -0.3125 0.5 0.18750000000000006
v 0.3125 1.5 0.18749999999999997
v 0.3125 1.5 0.12499999999999996
v 0.3125 0.5 0.18749999999999997
v 0.3125 0.5 0.12499999999999996
vt 0.015625 0.96875
vt 0.171875 0.96875
vt 0.171875 0.46875
vt 0.015625 0.46875
vt 0 0.96875
vt 0.015625 0.96875
vt 0.015625 0.46875
vt 0 0.46875
vt 0.1875 0.96875
vt 0.34375 0.96875
vt 0.34375 0.46875
vt 0.1875 0.46875
vt 0.171875 0.96875
vt 0.1875 0.96875
vt 0.1875 0.46875
vt 0.171875 0.46875
vt 0.171875 0.96875
vt 0.015625 0.96875
vt 0.015625 1
vt 0.171875 1
vt 0.328125 1
vt 0.171875 1
vt 0.171875 0.96875
vt 0.328125 0.96875
vn 1.2246467991473532e-16 0 1
vn -1 0 1.2246467991473532e-16
vn -1.2246467991473532e-16 0 -1
vn 1 0 -1.2246467991473532e-16
vn 0 1 0
vn 0 -1 0
usemtl m_1c5dd7b9-aaec-32b8-0069-52df28f08762
f 100/292/73 103/291/73 101/290/73 98/289/73
f 99/296/74 100/295/74 98/294/74 97/293/74
f 104/300/75 99/299/75 97/298/75 102/297/75
f 103/304/76 104/303/76 102/302/76 101/301/76
f 102/308/77 97/307/77 98/306/77 101/305/77
f 103/312/78 100/311/78 99/310/78 104/309/78