# Made in Blockbench 5.2.1
mtllib materials.mtl

o headwear
v 0.28125 2.03125 0.28125
v 0.28125 2.03125 -0.28125
v 0.28125 1.46875 0.28125
v 0.28125 1.46875 -0.28125
v -0.28125 2.03125 -0.28125
v -0.28125 2.03125 0.28125
v -0.28125 1.46875 -0.28125
v -0.28125 1.46875 0.28125
vt 0.625 0.875
vt 0.75 0.875
vt 0.75 0.75
vt 0.625 0.75
vt 0.5 0.875
vt 0.625 0.875
vt 0.625 0.75
vt 0.5 0.75
vt 0.875 0.875
vt 1 0.875
vt 1 0.75
vt 0.875 0.75
vt 0.75 0.875
vt 0.875 0.875
vt 0.875 0.75
vt 0.75 0.75
vt 0.75 0.875
vt 0.625 0.875
vt 0.625 1
vt 0.75 1
vt 0.875 1
vt 0.75 1
vt 0.75 0.875
vt 0.875 0.875
vn 0 0 -1
vn 1 0 0
vn 0 0 1
vn -1 0 0
vn 0 1 0
vn 0 -1 0
usemtl m_711baa8b-e285-70ee-fc17-d4397ecf5eae
f 4/4/1 7/3/1 5/2/1 2/1/1
f 3/8/2 4/7/2 2/6/2 1/5/2
f 8/12/3 3/11/3 1/10/3 6/9/3
f 7/16/4 8/15/4 6/14/4 5/13/4
f 6/20/5 1/19/5 2/18/5 5/17/5
f 7/24/6 4/23/6 3/22/6 8/21/6
o head
v 0.25 2 0.25
v 0.25 2 -0.25
v 0.25 1.5 0.25
v 0.25 1.5 -0.25
v -0.25 2 -0.25
v -0.25 2 0.25
v -0.25 1.5 -0.25
v -0.25 1.5 0.25
vt 0.125 0.875
vt 0.25 0.875
vt 0.25 0.75
vt 0.125 0.75
vt 0 0.875
vt 0.125 0.875
vt 0.125 0.75
vt 0 0.75
vt 0.375 0.875
vt 0.5 0.875
vt 0.5 0.75
vt 0.375 0.75
vt 0.25 0.875
vt 0.375 0.875
vt 0.375 0.75
vt 0.25 0.75
vt 0.25 0.875
vt 0.125 0.875
vt 0.125 1
vt 0.25 1
vt 0.375 1
vt 0.25 1
vt 0.25 0.875
vt 0.375 0.875
vn 0 0 -1
vn 1 0 0
vn 0 0 1
vn -1 0 0
vn 0 1 0
vn 0 -1 0
usemtl m_711baa8b-e285-70ee-fc17-d4397ecf5eae
f 12/28/7 15/27/7 13/26/7 10/25/7
f 11/32/8 12/31/8 10/30/8 9/29/8
f 16/36/9 11/35/9 9/34/9 14/33/9
f 15/40/10 16/39/10 14/38/10 13/37/10
f 14/44/11 9/43/11 10/42/11 13/41/11
f 15/48/12 12/47/12 11/46/12 16/45/12
o body
v 0.25 1.5 0.125
v 0.25 1.5 -0.125
v 0.25 0.75 0.125
v 0.25 0.75 -0.125
v -0.25 1.5 -0.125
v -0.25 1.5 0.125
v -0.25 0.75 -0.125
v -0.25 0.75 0.125
vt 0.3125 0.6875
vt 0.4375 0.6875
vt 0.4375 0.5
vt 0.3125 0.5
vt 0.25 0.6875
vt 0.3125 0.6875
vt 0.3125 0.5
vt 0.25 0.5
vt 0.5 0.6875
vt 0.625 0.6875
vt 0.625 0.5
vt 0.5 0.5
vt 0.4375 0.6875
vt 0.5 0.6875
vt 0.5 0.5
vt 0.4375 0.5
vt 0.4375 0.6875
vt 0.3125 0.6875
vt 0.3125 0.75
vt 0.4375 0.75
vt 0.5625 0.75
vt 0.4375 0.75
vt 0.4375 0.6875
vt 0.5625 0.6875
vn 0 0 -1
vn 1 0 0
vn 0 0 1
vn -1 0 0
vn 0 1 0
vn 0 -1 0
usemtl m_711baa8b-e285-70ee-fc17-d4397ecf5eae
f 20/52/13 23/51/13 21/50/13 18/49/13
f 19/56/14 20/55/14 18/54/14 17/53/14
f 24/60/15 19/59/15 17/58/15 22/57/15
f 23/64/16 24/63/16 22/62/16 21/61/16
f 22/68/17 17/67/17 18/66/17 21/65/17
f 23/72/18 20/71/18 19/70/18 24/69/18
o jacket
v 0.265625 1.515625 0.140625
v 0.265625 1.515625 -0.140625
v 0.265625 0.734375 0.140625
v 0.265625 0.734375 -0.140625
v -0.265625 1.515625 -0.140625
v -0.265625 1.515625 0.140625
v -0.265625 0.734375 -0.140625
v -0.265625 0.734375 0.140625
vt 0.3125 0.4375
vt 0.4375 0.4375
vt 0.4375 0.25
vt 0.3125 0.25
vt 0.25 0.4375
vt 0.3125 0.4375
vt 0.3125 0.25
vt 0.25 0.25
vt 0.5 0.4375
vt 0.625 0.4375
vt 0.625 0.25
vt 0.5 0.25
vt 0.4375 0.4375
vt 0.5 0.4375
vt 0.5 0.25
vt 0.4375 0.25
vt 0.4375 0.4375
vt 0.3125 0.4375
vt 0.3125 0.5
vt 0.4375 0.5
vt 0.5625 0.5
vt 0.4375 0.5
vt 0.4375 0.4375
vt 0.5625 0.4375
vn 0 0 -1
vn 1 0 0
vn 0 0 1
vn -1 0 0
vn 0 1 0
vn 0 -1 0
usemtl m_711baa8b-e285-70ee-fc17-d4397ecf5eae
f 28/76/19 31/75/19 29/74/19 26/73/19
f 27/80/20 28/79/20 26/78/20 25/77/20
f 32/84/21 27/83/21 25/82/21 30/81/21
f 31/88/22 32/87/22 30/86/22 29/85/22
f 30/92/23 25/91/23 26/90/23 29/89/23
f 31/96/24 28/95/24 27/94/24 32/93/24
o right_sleeve
v 0.45793688323666515 1.3653321992803595 0.21422725899999273
v 0.5292654548327295 1.5164477141279036 -0.011998067934076984
v 0.584162749097028 0.7064326322390425 -0.1861100410865304
v 0.6554913206930923 0.8575481470865868 -0.41233536802060017
v 0.2610325624347906 1.5164477141279036 -0.09657157404465389
v 0.1897039908387263 1.3653321992803595 0.12965375288941583
v 0.38725842829515345 0.8575481470865868 -0.49690887413117696
v 0.3159298566990892 0.7064326322390425 -0.2706835471971072
vt 0.6875 0.4375
vt 0.75 0.4375
vt 0.75 0.25
vt 0.6875 0.25
vt 0.625 0.4375
vt 0.6875 0.4375
vt 0.6875 0.25
vt 0.625 0.25
vt 0.8125 0.4375
vt 0.875 0.4375
vt 0.875 0.25
vt 0.8125 0.25
vt 0.75 0.4375
vt 0.8125 0.4375
vt 0.8125 0.25
vt 0.75 0.25
vt 0.75 0.4375
vt 0.6875 0.4375
vt 0.6875 0.5
vt 0.75 0.5
vt 0.8125 0.5
vt 0.75 0.5
vt 0.75 0.4375
vt 0.8125 0.4375
vn 0.25361269900822864 0.5372996083468239 -0.8043567179878038
vn 0.9537169507482269 0 0.30070579950427306
vn -0.25361269900822864 -0.5372996083468239 0.8043567179878038
vn -0.9537169507482269 0 -0.30070579950427306
vn -0.16156910830126453 0.8433914458128858 0.5124317441107495
vn 0.16156910830126453 -0.8433914458128858 -0.5124317441107495
usemtl m_711baa8b-e285-70ee-fc17-d4397ecf5eae
f 36/100/25 39/99/25 37/98/25 34/97/25
f 35/104/26 36/103/26 34/102/26 33/101/26
f 40/108/27 35/107/27 33/106/27 38/105/27
f 39/112/28 40/111/28 38/110/28 37/109/28
f 38/116/29 33/115/29 34/114/29 37/113/29
f 39/120/30 36/119/30 35/118/30 40/117/30
o right_arm
v 0.4495222716204349 1.3605495143199522 0.18895391116244853
v 0.512925446372492 1.4948744164066583 -0.012135268334502292
v 0.5706991028463833 0.728005929960288 -0.19536989692061357
v 0.6341022775984404 0.8623308320469939 -0.3964590764175645
v 0.27449620868543534 1.4948744164066583 -0.0873117182105706
v 0.2110930339333782 1.3605495143199522 0.11377746128638033
v 0.3956730399113837 0.8623308320469939 -0.4716355262936327
v 0.33226986515932655 0.728005929960288 -0.27054634679668177
vt 0.6875 0.6875
vt 0.75 0.6875
vt 0.75 0.5
vt 0.6875 0.5
vt 0.625 0.6875
vt 0.6875 0.6875
vt 0.6875 0.5
vt 0.625 0.5
vt 0.8125 0.6875
vt 0.875 0.6875
vt 0.875 0.5
vt 0.8125 0.5
vt 0.75 0.6875
vt 0.8125 0.6875
vt 0.8125 0.5
vt 0.75 0.5
vt 0.75 0.6875
vt 0.6875 0.6875
vt 0.6875 0.75
vt 0.75 0.75
vt 0.8125 0.75
vt 0.75 0.75
vt 0.75 0.6875
vt 0.8125 0.6875
vn 0.25361269900822864 0.5372996083468239 -0.8043567179878038
vn 0.9537169507482269 0 0.30070579950427306
vn -0.25361269900822864 -0.5372996083468239 0.8043567179878038
vn -0.9537169507482269 0 -0.30070579950427306
vn -0.16156910830126453 0.8433914458128858 0.5124317441107495
vn 0.16156910830126453 -0.8433914458128858 -0.5124317441107495
usemtl m_711baa8b-e285-70ee-fc17-d4397ecf5eae
f 44/124/31 47/123/31 45/122/31 42/121/31
f 43/128/32 44/127/32 42/126/32 41/125/32
f 48/132/33 43/131/33 41/130/33 46/129/33
f 47/136/34 48/135/34 46/134/34 45/133/34
f 46/140/35 41/139/35 42/138/35 45/137/35
f 47/144/36 44/143/36 43/142/36 48/141/36
o left_sleeve
v -0.1520292997989718 1.3723024996795108 0.15783930783413447
v -0.22704691591891799 1.502169297151864 -0.08008617353756553
v -0.26050624191837046 0.679325286259025 -0.18620559796800518
v -0.33552385803831664 0.8091920837313783 -0.4241310793397052
v -0.4952798083168568 1.502169297151864 0.004487332573011371
v -0.42026219219691063 1.3723024996795108 0.24241281394471137
v -0.6037567504362554 0.8091920837313783 -0.3395575732291284
v -0.5287391343163093 0.679325286259025 -0.10163209185742839
vt 0.8125 0.1875
vt 0.875 0.1875
vt 0.875 0
vt 0.8125 0
vt 0.75 0.1875
vt 0.8125 0.1875
vt 0.8125 0
vt 0.75 0
vt 0.9375 0.1875
vt 1 0.1875
vt 1 0
vt 0.9375 0
vt 0.875 0.1875
vt 0.9375 0.1875
vt 0.9375 0
vt 0.875 0
vt 0.875 0.1875
vt 0.8125 0.1875
vt 0.8125 0.25
vt 0.875 0.25
vt 0.9375 0.25
vt 0.875 0.25
vt 0.875 0.1875
vt 0.9375 0.1875
vn -0.26672930175980863 0.46174861323503397 -0.845957267099378
vn 0.953716950748227 -2.775557561562892e-17 -0.3007057995042732
vn 0.26672930175980863 -0.46174861323503397 0.845957267099378
vn -0.953716950748227 2.775557561562892e-17 0.3007057995042732
vn 0.13885048591283028 0.8870108331782218 0.440377479426739
vn -0.13885048591283028 -0.8870108331782218 -0.440377479426739
usemtl m_711baa8b-e285-70ee-fc17-d4397ecf5eae
f 52/148/37 55/147/37 53/146/37 50/145/37
f 51/152/38 52/151/38 50/150/38 49/149/38
f 56/156/39 51/155/39 49/154/39 54/153/39
f 55/160/40 56/159/40 54/158/40 53/157/40
f 54/164/41 49/163/41 50/162/41 53/161/41
f 55/168/42 52/167/42 51/166/42 56/165/42
o left_arm
v -0.17326831133679782 1.3656577774928984 0.14243885553691826
v -0.23995063677675 1.481094930801657 -0.06905046123792613
v -0.2774061757714205 0.7003996526092322 -0.18784425403313587
v -0.3440885012113727 0.8158368059179906 -0.39933357080798026
v -0.4783798744638067 1.481094930801657 0.006125988638142177
v -0.4116975490238546 1.3656577774928984 0.21761530541298657
v -0.5825177388984294 0.8158368059179906 -0.32415712093191207
v -0.5158354134584773 0.7003996526092322 -0.11266780415706756
vt 0.5625 0.1875
vt 0.625 0.1875
vt 0.625 0
vt 0.5625 0
vt 0.5 0.1875
vt 0.5625 0.1875
vt 0.5625 0
vt 0.5 0
vt 0.6875 0.1875
vt 0.75 0.1875
vt 0.75 0
vt 0.6875 0
vt 0.625 0.1875
vt 0.6875 0.1875
vt 0.6875 0
vt 0.625 0
vt 0.625 0.1875
vt 0.5625 0.1875
vt 0.5625 0.25
vt 0.625 0.25
vt 0.6875 0.25
vt 0.625 0.25
vt 0.625 0.1875
vt 0.6875 0.1875
vn -0.26672930175980863 0.46174861323503397 -0.845957267099378
vn 0.953716950748227 -2.775557561562892e-17 -0.3007057995042732
vn 0.26672930175980863 -0.46174861323503397 0.845957267099378
vn -0.953716950748227 2.775557561562892e-17 0.3007057995042732
vn 0.13885048591283028 0.8870108331782218 0.440377479426739
vn -0.13885048591283028 -0.8870108331782218 -0.440377479426739
usemtl m_711baa8b-e285-70ee-fc17-d4397ecf5eae
f 60/172/43 63/171/43 61/170/43 58/169/43
f 59/176/44 60/175/44 58/174/44 57/173/44
f 64/180/45 59/179/45 57/178/45 62/177/45
f 63/184/46 64/183/46 62/182/46 61/181/46
f 62/188/47 57/187/47 58/186/47 61/185/47
f 63/192/48 60/191/48 59/190/48 64/189/48
o right_pants
v 0.1790935212406532 0.5635588693713048 0.15117939078412612
v 0.2023888552798555 0.8233999878901042 0.04610092943784805
v 0.3353154972891359 0.2645874378360784 -0.553492405036655
v 0.35861083132833815 0.5244285563548778 -0.6585708663829329
v -0.07219439672262576 0.8233999878901042 -0.01477271198224317
v -0.09548973076182807 0.5635588693713048 0.09030574936403468
v 0.08402757932585692 0.5244285563548778 -0.7194445078030244
v 0.06073224528665462 0.2645874378360784 -0.6143660464567464
vt 0.0625 0.4375
vt 0.125 0.4375
vt 0.125 0.25
vt 0.0625 0.25
vt 0 0.4375
vt 0.0625 0.4375
vt 0.0625 0.25
vt 0 0.25
vt 0.1875 0.4375
vt 0.25 0.4375
vt 0.25 0.25
vt 0.1875 0.25
vt 0.125 0.4375
vt 0.1875 0.4375
vt 0.1875 0.25
vt 0.125 0.25
vt 0.125 0.4375
vt 0.0625 0.4375
vt 0.0625 0.5
vt 0.125 0.5
vt 0.1875 0.5
vt 0.125 0.5
vt 0.125 0.4375
vt 0.1875 0.4375
vn 0.08282785436160815 0.9238795325112868 -0.37361230700898834
vn 0.9762960071199335 0 0.21643961393810293
vn -0.08282785436160815 -0.9238795325112868 0.37361230700898834
vn -0.9762960071199335 0 -0.21643961393810293
vn -0.19996412934205784 0.38268343236508984 0.9019798986505999
vn 0.19996412934205784 -0.38268343236508984 -0.9019798986505999
usemtl m_711baa8b-e285-70ee-fc17-d4397ecf5eae
f 68/196/49 71/195/49 69/194/49 66/193/49
f 67/200/50 68/199/50 66/198/50 65/197/50
f 72/204/51 67/203/51 65/202/51 70/201/51
f 71/208/52 72/207/52 70/206/52 69/205/52
f 70/212/53 65/211/53 66/210/53 69/209/53
f 71/216/54 68/215/54 67/214/54 72/213/54
o right_leg
v 0.16825752087477402 0.5720150584360891 0.1278663936029122
v 0.18896448446517605 0.8029849415639108 0.03446331685066506
v 0.3182306178813174 0.2850024841622718 -0.5486185303850376
v 0.33893758147171943 0.5159723672900934 -0.6420216071372847
v -0.05510951731480729 0.8029849415639108 -0.019646586633860652
v -0.07581648090520932 0.5720150584360891 0.07375649011838648
v 0.09486357969173609 0.5159723672900934 -0.6961315106218104
v 0.07415661610133406 0.2850024841622718 -0.6027284338695633
vt 0.0625 0.6875
vt 0.125 0.6875
vt 0.125 0.5
vt 0.0625 0.5
vt 0 0.6875
vt 0.0625 0.6875
vt 0.0625 0.5
vt 0 0.5
vt 0.1875 0.6875
vt 0.25 0.6875
vt 0.25 0.5
vt 0.1875 0.5
vt 0.125 0.6875
vt 0.1875 0.6875
vt 0.1875 0.5
vt 0.125 0.5
vt 0.125 0.6875
vt 0.0625 0.6875
vt 0.0625 0.75
vt 0.125 0.75
vt 0.1875 0.75
vt 0.125 0.75
vt 0.125 0.6875
vt 0.1875 0.6875
vn 0.08282785436160815 0.9238795325112868 -0.37361230700898834
vn 0.9762960071199335 0 0.21643961393810293
vn -0.08282785436160815 -0.9238795325112868 0.37361230700898834
vn -0.9762960071199335 0 -0.21643961393810293
vn -0.19996412934205784 0.38268343236508984 0.9019798986505999
vn 0.19996412934205784 -0.38268343236508984 -0.9019798986505999
usemtl m_711baa8b-e285-70ee-fc17-d4397ecf5eae
f 76/220/55 79/219/55 77/218/55 74/217/55
f 75/224/56 76/223/56 74/222/56 73/221/56
f 80/228/57 75/227/57 73/226/57 78/225/57
f 79/232/58 80/231/58 78/230/58 77/229/58
f 78/236/59 73/235/59 74/234/59 77/233/59
f 79/240/60 76/239/60 75/238/60 80/237/60
o left_pants
v 0.03560033601391577 0.5606997899414452 0.08894846082581542
v 0.0107037128229035 0.824988339537482 -0.003967001859939923
v -0.1544077474249076 0.2934965529682664 -0.62017136041666
v -0.17930437061591983 0.5577851025643031 -0.7130868231024153
v -0.2609629258208969 0.824988339537482 0.06882585457514401
v -0.2360663026298847 0.5606997899414452 0.16174131726089935
v -0.4509710092597203 0.5577851025643031 -0.6402939666673314
v -0.426074386068708 0.2934965529682664 -0.5473785039815761
vt 0.0625 0.1875
vt 0.125 0.1875
vt 0.125 0
vt 0.0625 0
vt 0 0.1875
vt 0.0625 0.1875
vt 0.0625 0
vt 0 0
vt 0.1875 0.1875
vt 0.25 0.1875
vt 0.25 0
vt 0.1875 0
vt 0.125 0.1875
vt 0.1875 0.1875
vt 0.1875 0
vt 0.125 0
vt 0.125 0.1875
vt 0.0625 0.1875
vt 0.0625 0.25
vt 0.125 0.25
vt 0.1875 0.25
vt 0.125 0.25
vt 0.125 0.1875
vt 0.1875 0.1875
vn -0.08852132690137689 0.9396926207859084 -0.3303660895493523
vn 0.9659258262890683 -1.387778780781446e-17 -0.25881904510252074
vn 0.08852132690137689 -0.9396926207859084 0.3303660895493523
vn -0.9659258262890683 1.387778780781446e-17 0.25881904510252074
vn 0.24321034680169387 0.34202014332566877 0.9076733711903686
vn -0.24321034680169387 -0.34202014332566877 -0.9076733711903686
usemtl m_711baa8b-e285-70ee-fc17-d4397ecf5eae
f 84/244/61 87/243/61 85/242/61 82/241/61
f 83/248/62 84/247/62 82/246/62 81/245/62
f 88/252/63 83/251/63 81/250/63 86/249/63
f 87/256/64 88/255/64 86/254/64 85/253/64
f 86/260/65 81/259/65 82/258/65 85/257/65
f 87/264/66 84/263/66 83/262/66 88/261/66
o left_leg
v 0.015324437576538591 0.5700384224017614 0.07364814183148416
v -0.006805894148805641 0.8049615775982386 -0.008943380555853975
v -0.16708332252473182 0.3135233149075098 -0.6071068865612922
v -0.18921365425007605 0.5484464701039868 -0.6896984089486303
v -0.24828735072107272 0.8049615775982386 0.05576138071977621
v -0.2261570189957285 0.5700384224017614 0.13835290310711434
v -0.43069511082234313 0.5484464701039868 -0.6249936476730001
v -0.4085647790969989 0.3135233149075098 -0.5424021252856621
vt 0.3125 0.1875
vt 0.375 0.1875
vt 0.375 0
vt 0.3125 0
vt 0.25 0.1875
vt 0.3125 0.1875
vt 0.3125 0
vt 0.25 0
vt 0.4375 0.1875
vt 0.5 0.1875
vt 0.5 0
vt 0.4375 0
vt 0.375 0.1875
vt 0.4375 0.1875
vt 0.4375 0
vt 0.375 0
vt 0.375 0.1875
vt 0.3125 0.1875
vt 0.3125 0.25
vt 0.375 0.25
vt 0.4375 0.25
vt 0.375 0.25
vt 0.375 0.1875
vt 0.4375 0.1875
vn -0.08852132690137689 0.9396926207859084 -0.3303660895493523
vn 0.9659258262890683 -1.387778780781446e-17 -0.25881904510252074
vn 0.08852132690137689 -0.9396926207859084 0.3303660895493523
vn -0.9659258262890683 1.387778780781446e-17 0.25881904510252074
vn 0.24321034680169387 0.34202014332566877 0.9076733711903686
vn -0.24321034680169387 -0.34202014332566877 -0.9076733711903686
usemtl m_711baa8b-e285-70ee-fc17-d4397ecf5eae
f 92/268/67 95/267/67 93/266/67 90/265/67
f 91/272/68 92/271/68 90/270/68 89/269/68
f 96/276/69 91/275/69 89/274/69 94/273/69
f 95/280/70 96/279/70 94/278/70 93/277/70
f 94/284/71 89/283/71 90/282/71 93/281/71
f 95/288/72 92/287/72 91/286/72 96/285/72
o cape
v -0.3125 1.5 0.12500000000000003
v -0.3125 1.5 0.18750000000000006
v -0.3125 0.5 0.12500000000000003
v -0.3125 0.5 0.18750000000000006
v 0.3125 1.5 0.18749999999999997
v 0.3125 1.5 0.12499999999999996
v 0.3125 0.5 0.18749999999999997
v 0.3125 0.5 0.12499999999999996
vt 0.015625 0.96875
vt 0.171875 0.96875
vt 0.171875 0.46875
vt 0.015625 0.46875
vt 0 0.96875
vt 0.015625 0.96875
vt 0.015625 0.46875
vt 0 0.46875
vt 0.1875 0.96875
vt 0.34375 0.96875
vt 0.34375 0.46875
vt 0.1875 0.46875
vt 0.171875 0.96875
vt 0.1875 0.96875
vt 0.1875 0.46875
vt 0.171875 0.46875
vt 0.171875 0.96875
vt 0.015625 0.96875
vt 0.015625 1
vt 0.171875 1
vt 0.328125 1
vt 0.171875 1
vt 0.171875 0.96875
vt 0.328125 0.96875
vn 1.2246467991473532e-16 0 1
vn -1 0 1.2246467991473532e-16
vn -1.2246467991473532e-16 0 -1
vn 1 0 -1.2246467991473532e-16
vn 0 1 0
vn 0 -1 0
usemtl m_1c5dd7b9-aaec-32b8-0069-52df28f08762
f 100/292/73 103/291/73 101/290/73 98/289/73
f 99/296/74 100/295/74 98/294/74 97/293/74
f 104/300/75 99/299/75 97/298/75 102/297/75
f 103/304/76 104/303/76 102/302/76 101/301/76
f 102/308/77 97/307/77 98/306/77 101/305/77
f 103/312/78 100/311/78 99/310/78 104/309/78