# Made in Blockbench 5.1.6
# Created by AlonsoAliaga.
mtllib materials.mtl

o headwear
v 0.36693352622512543 1.9891760523049742 0.25786869659444145
v 0.24790340910262312 2.043444830239056 -0.28920806306488156
v 0.33189011179316186 1.4298127169465853 0.21000568204575415
v 0.2128599946706595 1.4840814948806673 -0.3370710776135689
v -0.30074041007586083 2.0673991367053164 -0.16746078022469868
v -0.18171029295335844 2.0131303587712344 0.3796159794346243
v -0.3357838245078244 1.508035801346927 -0.215323794773386
v -0.21675370738532207 1.453767023412845 0.33175296488593703
vt 0.625 0.875
vt 0.75 0.875
vt 0.75 0.75
vt 0.625 0.75
vt 0.5 0.875
vt 0.625 0.875
vt 0.625 0.75
vt 0.5 0.75
vt 0.875 0.875
vt 1 0.875
vt 1 0.75
vt 0.875 0.75
vt 0.75 0.875
vt 0.875 0.875
vt 0.875 0.75
vt 0.75 0.75
vt 0.75 0.875
vt 0.625 0.875
vt 0.625 1
vt 0.75 1
vt 0.875 1
vt 0.75 1
vt 0.75 0.875
vt 0.875 0.875
vn -0.21160909710667083 0.09647782743836818 -0.9725809060610187
vn 0.9753667896506382 -0.042585433717795204 -0.21643961393810293
vn 0.21160909710667083 -0.09647782743836818 0.9725809060610187
vn -0.9753667896506382 0.042585433717795204 0.21643961393810293
vn 0.06229940343460204 0.994423707303803 0.08508980364211079
vn -0.06229940343460204 -0.994423707303803 -0.08508980364211079
usemtl m_711baa8b-e285-70ee-fc17-d4397ecf5eae
f 4/4/1 7/3/1 5/2/1 2/1/1
f 3/8/2 4/7/2 2/6/2 1/5/2
f 8/12/3 3/11/3 1/10/3 6/9/3
f 7/16/4 8/15/4 6/14/4 5/13/4
f 6/20/5 1/19/5 2/18/5 5/17/5
f 7/24/6 4/23/6 3/22/6 8/21/6
o head
v 0.3278936734066282 1.9624460383628608 0.23158022485178437
v 0.22208912485329282 2.0106849520820447 -0.25471022817872496
v 0.2967439716893272 1.4652341847109593 0.18903532303072895
v 0.1909394231359918 1.5134730984301432 -0.2972551299997804
v -0.2655942699720263 2.031977668940942 -0.14649042120967354
v -0.1597897214186908 1.9837387552217582 0.3398000318208358
v -0.29674397168932726 1.5347658152890407 -0.18903532303072895
v -0.19093942313599183 1.4865269015698568 0.2972551299997804
vt 0.125 0.875
vt 0.25 0.875
vt 0.25 0.75
vt 0.125 0.75
vt 0 0.875
vt 0.125 0.875
vt 0.125 0.75
vt 0 0.75
vt 0.375 0.875
vt 0.5 0.875
vt 0.5 0.75
vt 0.375 0.75
vt 0.25 0.875
vt 0.375 0.875
vt 0.375 0.75
vt 0.25 0.75
vt 0.25 0.875
vt 0.125 0.875
vt 0.125 1
vt 0.25 1
vt 0.375 1
vt 0.25 1
vt 0.25 0.875
vt 0.375 0.875
vn -0.21160909710667083 0.09647782743836818 -0.9725809060610187
vn 0.9753667896506382 -0.042585433717795204 -0.21643961393810293
vn 0.21160909710667083 -0.09647782743836818 0.9725809060610187
vn -0.9753667896506382 0.042585433717795204 0.21643961393810293
vn 0.06229940343460204 0.994423707303803 0.08508980364211079
vn -0.06229940343460204 -0.994423707303803 -0.08508980364211079
usemtl m_711baa8b-e285-70ee-fc17-d4397ecf5eae
f 12/28/7 15/27/7 13/26/7 10/25/7
f 11/32/8 12/31/8 10/30/8 9/29/8
f 16/36/9 11/35/9 9/34/9 14/33/9
f 15/40/10 16/39/10 14/38/10 13/37/10
f 14/44/11 9/43/11 10/42/11 13/41/11
f 15/48/12 12/47/12 11/46/12 16/45/12
o body
v 0.25 1.5 0.125
v 0.25 1.5 -0.125
v 0.25 0.75 0.125
v 0.25 0.75 -0.125
v -0.25 1.5 -0.125
v -0.25 1.5 0.125
v -0.25 0.75 -0.125
v -0.25 0.75 0.125
vt 0.3125 0.6875
vt 0.4375 0.6875
vt 0.4375 0.5
vt 0.3125 0.5
vt 0.25 0.6875
vt 0.3125 0.6875
vt 0.3125 0.5
vt 0.25 0.5
vt 0.5 0.6875
vt 0.625 0.6875
vt 0.625 0.5
vt 0.5 0.5
vt 0.4375 0.6875
vt 0.5 0.6875
vt 0.5 0.5
vt 0.4375 0.5
vt 0.4375 0.6875
vt 0.3125 0.6875
vt 0.3125 0.75
vt 0.4375 0.75
vt 0.5625 0.75
vt 0.4375 0.75
vt 0.4375 0.6875
vt 0.5625 0.6875
vn 0 0 -1
vn 1 0 0
vn 0 0 1
vn -1 0 0
vn 0 1 0
vn 0 -1 0
usemtl m_711baa8b-e285-70ee-fc17-d4397ecf5eae
f 20/52/13 23/51/13 21/50/13 18/49/13
f 19/56/14 20/55/14 18/54/14 17/53/14
f 24/60/15 19/59/15 17/58/15 22/57/15
f 23/64/16 24/63/16 22/62/16 21/61/16
f 22/68/17 17/67/17 18/66/17 21/65/17
f 23/72/18 20/71/18 19/70/18 24/69/18
o jacket
v 0.265625 1.515625 0.140625
v 0.265625 1.515625 -0.140625
v 0.265625 0.734375 0.140625
v 0.265625 0.734375 -0.140625
v -0.265625 1.515625 -0.140625
v -0.265625 1.515625 0.140625
v -0.265625 0.734375 -0.140625
v -0.265625 0.734375 0.140625
vt 0.3125 0.4375
vt 0.4375 0.4375
vt 0.4375 0.25
vt 0.3125 0.25
vt 0.25 0.4375
vt 0.3125 0.4375
vt 0.3125 0.25
vt 0.25 0.25
vt 0.5 0.4375
vt 0.625 0.4375
vt 0.625 0.25
vt 0.5 0.25
vt 0.4375 0.4375
vt 0.5 0.4375
vt 0.5 0.25
vt 0.4375 0.25
vt 0.4375 0.4375
vt 0.3125 0.4375
vt 0.3125 0.5
vt 0.4375 0.5
vt 0.5625 0.5
vt 0.4375 0.5
vt 0.4375 0.4375
vt 0.5625 0.4375
vn 0 0 -1
vn 1 0 0
vn 0 0 1
vn -1 0 0
vn 0 1 0
vn 0 -1 0
usemtl m_711baa8b-e285-70ee-fc17-d4397ecf5eae
f 28/76/19 31/75/19 29/74/19 26/73/19
f 27/80/20 28/79/20 26/78/20 25/77/20
f 32/84/21 27/83/21 25/82/21 30/81/21
f 31/88/22 32/87/22 30/86/22 29/85/22
f 30/92/23 25/91/23 26/90/23 29/89/23
f 31/96/24 28/95/24 27/94/24 32/93/24
o right_sleeve
v 0.5117595885173103 1.5304646816147374 0.13708339152203186
v 0.5122947090981586 1.518208405290848 -0.14389892079786565
v 0.5458048005281143 0.7507011276726493 0.17116103790120063
v 0.5463399211089626 0.7384448513487599 -0.10982127441869688
v 0.23131239677826113 1.5059404525943472 -0.14389892079786565
v 0.23077727619741287 1.5181967289182365 0.13708339152203186
v 0.2653576087890651 0.7261768986522592 -0.10982127441869688
v 0.26482248820821686 0.7384331749761486 0.17116103790120063
vt 0.6875 0.4375
vt 0.75 0.4375
vt 0.75 0.25
vt 0.6875 0.25
vt 0.625 0.4375
vt 0.6875 0.4375
vt 0.6875 0.25
vt 0.625 0.25
vt 0.8125 0.4375
vt 0.875 0.4375
vt 0.875 0.25
vt 0.8125 0.25
vt 0.75 0.4375
vt 0.8125 0.4375
vt 0.8125 0.25
vt 0.75 0.25
vt 0.75 0.4375
vt 0.6875 0.4375
vt 0.6875 0.5
vt 0.75 0.5
vt 0.8125 0.5
vt 0.75 0.5
vt 0.75 0.4375
vt 0.8125 0.4375
vn 0.001902650954127234 -0.04357787137382909 -0.9990482215818578
vn 0.9990482215818578 0.04361938736533601 -2.168404344971009e-19
vn -0.001902650954127234 0.04357787137382909 0.9990482215818578
vn -0.9990482215818578 -0.04361938736533601 2.168404344971009e-19
vn -0.04357787137382909 0.9980973490458729 -0.04361938736533601
vn 0.04357787137382909 -0.9980973490458729 0.04361938736533601
usemtl m_711baa8b-e285-70ee-fc17-d4397ecf5eae
f 36/100/25 39/99/25 37/98/25 34/97/25
f 35/104/26 36/103/26 34/102/26 33/101/26
f 40/108/27 35/107/27 33/106/27 38/105/27
f 39/112/28 40/111/28 38/110/28 37/109/28
f 38/116/29 33/115/29 34/114/29 37/113/29
f 39/120/30 36/119/30 35/118/30 40/117/30
o right_arm
v 0.49686009321646807 1.5135069533680963 0.12215481598739872
v 0.4973357559549999 1.502612485524639 -0.12760723940806573
v 0.52954349674684 0.7649339415836918 0.1548693565114007
v 0.5300191594853718 0.7540394737402345 -0.09489269888406374
v 0.2475737005595355 1.491707638683305 -0.12760723940806573
v 0.24709803782100367 1.5026021065267623 0.12215481598739872
v 0.28025710408990734 0.7431346268989004 -0.09489269888406374
v 0.2797814413513755 0.7540290947423577 0.1548693565114007
vt 0.6875 0.6875
vt 0.75 0.6875
vt 0.75 0.5
vt 0.6875 0.5
vt 0.625 0.6875
vt 0.6875 0.6875
vt 0.6875 0.5
vt 0.625 0.5
vt 0.8125 0.6875
vt 0.875 0.6875
vt 0.875 0.5
vt 0.8125 0.5
vt 0.75 0.6875
vt 0.8125 0.6875
vt 0.8125 0.5
vt 0.75 0.5
vt 0.75 0.6875
vt 0.6875 0.6875
vt 0.6875 0.75
vt 0.75 0.75
vt 0.8125 0.75
vt 0.75 0.75
vt 0.75 0.6875
vt 0.8125 0.6875
vn 0.001902650954127234 -0.04357787137382909 -0.9990482215818578
vn 0.9990482215818578 0.04361938736533601 -2.168404344971009e-19
vn -0.001902650954127234 0.04357787137382909 0.9990482215818578
vn -0.9990482215818578 -0.04361938736533601 2.168404344971009e-19
vn -0.04357787137382909 0.9980973490458729 -0.04361938736533601
vn 0.04357787137382909 -0.9980973490458729 0.04361938736533601
usemtl m_711baa8b-e285-70ee-fc17-d4397ecf5eae
f 44/124/31 47/123/31 45/122/31 42/121/31
f 43/128/32 44/127/32 42/126/32 41/125/32
f 48/132/33 43/131/33 41/130/33 46/129/33
f 47/136/34 48/135/34 46/134/34 45/133/34
f 46/140/35 41/139/35 42/138/35 45/137/35
f 47/144/36 44/143/36 43/142/36 48/141/36
o left_sleeve
v -0.22857364142322215 1.519805811654514 0.15777717941163683
v -0.2269723522714122 1.5564813629628154 -0.12106668784974733
v -0.26235974881356283 0.7459767291920322 0.05580359173972155
v -0.2607584596617529 0.7826522805003336 -0.2230402755216626
v -0.5079546645913097 1.5687493156593162 -0.12106668784974733
v -0.5095559537431196 1.5320737643510147 0.15777717941163683
v -0.5417407719816504 0.7949202331968344 -0.2230402755216626
v -0.5433420611334603 0.7582446818885329 0.05580359173972155
vt 0.8125 0.1875
vt 0.875 0.1875
vt 0.875 0
vt 0.8125 0
vt 0.75 0.1875
vt 0.8125 0.1875
vt 0.8125 0
vt 0.75 0
vt 0.9375 0.1875
vt 1 0.1875
vt 1 0
vt 0.9375 0
vt 0.875 0.1875
vt 0.9375 0.1875
vt 0.9375 0
vt 0.875 0
vt 0.875 0.1875
vt 0.8125 0.1875
vt 0.8125 0.25
vt 0.875 0.25
vt 0.9375 0.25
vt 0.875 0.25
vt 0.875 0.1875
vt 0.9375 0.1875
vn 0.005693472539768735 0.13040196020729425 -0.9914448613738105
vn 0.9990482215818578 -0.04361938736533599 1.734723475976807e-18
vn -0.005693472539768735 -0.13040196020729425 0.9914448613738105
vn -0.9990482215818578 0.04361938736533599 -1.734723475976807e-18
vn 0.04324621745963608 0.9905012255519768 0.13052619222005155
vn -0.04324621745963608 -0.9905012255519768 -0.13052619222005155
usemtl m_711baa8b-e285-70ee-fc17-d4397ecf5eae
f 52/148/37 55/147/37 53/146/37 50/145/37
f 51/152/38 52/151/38 50/150/38 49/149/38
f 56/156/39 51/155/39 49/154/39 54/153/39
f 55/160/40 56/159/40 54/158/40 53/157/40
f 54/164/41 49/163/41 50/162/41 53/161/41
f 55/168/42 52/167/42 51/166/42 56/165/42
o left_arm
v -0.2447705315248116 1.5070483135610868 0.14024638169923276
v -0.2433471633898694 1.5396488036129103 -0.10761483364421985
v -0.27720519461953863 0.7641723943971042 0.04235173753419408
v -0.2757818264845965 0.7967728844489277 -0.20550947780925855
v -0.49310921878533387 1.5505536504542443 -0.10761483364421985
v -0.494532586920276 1.5179531604024208 0.14024638169923276
v -0.525543881880061 0.8076777312902617 -0.20550947780925855
v -0.5269672500150031 0.7750772412384381 0.04235173753419408
vt 0.5625 0.1875
vt 0.625 0.1875
vt 0.625 0
vt 0.5625 0
vt 0.5 0.1875
vt 0.5625 0.1875
vt 0.5625 0
vt 0.5 0
vt 0.6875 0.1875
vt 0.75 0.1875
vt 0.75 0
vt 0.6875 0
vt 0.625 0.1875
vt 0.6875 0.1875
vt 0.6875 0
vt 0.625 0
vt 0.625 0.1875
vt 0.5625 0.1875
vt 0.5625 0.25
vt 0.625 0.25
vt 0.6875 0.25
vt 0.625 0.25
vt 0.625 0.1875
vt 0.6875 0.1875
vn 0.005693472539768735 0.13040196020729425 -0.9914448613738105
vn 0.9990482215818578 -0.04361938736533599 1.734723475976807e-18
vn -0.005693472539768735 -0.13040196020729425 0.9914448613738105
vn -0.9990482215818578 0.04361938736533599 -1.734723475976807e-18
vn 0.04324621745963608 0.9905012255519768 0.13052619222005155
vn -0.04324621745963608 -0.9905012255519768 -0.13052619222005155
usemtl m_711baa8b-e285-70ee-fc17-d4397ecf5eae
f 60/172/43 63/171/43 61/170/43 58/169/43
f 59/176/44 60/175/44 58/174/44 57/173/44
f 64/180/45 59/179/45 57/178/45 62/177/45
f 63/184/46 64/183/46 62/182/46 61/181/46
f 62/188/47 57/187/47 58/186/47 61/185/47
f 63/192/48 60/191/48 59/190/48 64/189/48
o right_pants
v 0.2602436772207064 0.609375 0.06647811979492346
v 0.2602436772207064 0.890625 0.06647811979492324
v 0.3622172648926217 0.6093749999999997 -0.7080881781533659
v 0.3622172648926217 0.8906249999999997 -0.708088178153366
v -0.01860019004067777 0.890625 0.029767628233033694
v -0.01860019004067777 0.609375 0.029767628233033916
v 0.08337339763123751 0.8906249999999997 -0.7447986697152555
v 0.08337339763123751 0.6093749999999997 -0.7447986697152554
vt 0.0625 0.4375
vt 0.125 0.4375
vt 0.125 0.25
vt 0.0625 0.25
vt 0 0.4375
vt 0.0625 0.4375
vt 0.0625 0.25
vt 0 0.25
vt 0.1875 0.4375
vt 0.25 0.4375
vt 0.25 0.25
vt 0.1875 0.25
vt 0.125 0.4375
vt 0.1875 0.4375
vt 0.1875 0.25
vt 0.125 0.25
vt 0.125 0.4375
vt 0.0625 0.4375
vt 0.0625 0.5
vt 0.125 0.5
vt 0.1875 0.5
vt 0.125 0.5
vt 0.125 0.4375
vt 0.1875 0.4375
vn 5.79652735677401e-17 1 -4.402899650974004e-16
vn 0.9914448613738105 4.4206212158446357e-17 0.1305261922200516
vn -5.79652735677401e-17 -1 4.402899650974004e-16
vn -0.9914448613738105 -4.4206212158446357e-17 -0.1305261922200516
vn -0.13052619222005157 4.421013798963923e-16 0.9914448613738104
vn 0.13052619222005157 -4.421013798963923e-16 -0.9914448613738104
usemtl m_711baa8b-e285-70ee-fc17-d4397ecf5eae
f 68/196/49 71/195/49 69/194/49 66/193/49
f 67/200/50 68/199/50 66/198/50 65/197/50
f 72/204/51 67/203/51 65/202/51 70/201/51
f 71/208/52 72/207/52 70/206/52 69/205/52
f 70/212/53 65/211/53 66/210/53 69/209/53
f 71/216/54 68/215/54 67/214/54 72/213/54
o right_leg
v 0.2467918230151789 0.625 0.048947322082519396
v 0.2467918230151789 0.875 0.048947322082519173
v 0.34468646718021756 0.6249999999999997 -0.6946363239478384
v 0.34468646718021756 0.8749999999999997 -0.6946363239478386
v -0.0010693923282736884 0.875 0.01631577402750639
v -0.0010693923282736884 0.625 0.01631577402750639
v 0.09682525183676499 0.8749999999999997 -0.7272678720028514
v 0.09682525183676499 0.6249999999999997 -0.7272678720028514
vt 0.0625 0.6875
vt 0.125 0.6875
vt 0.125 0.5
vt 0.0625 0.5
vt 0 0.6875
vt 0.0625 0.6875
vt 0.0625 0.5
vt 0 0.5
vt 0.1875 0.6875
vt 0.25 0.6875
vt 0.25 0.5
vt 0.1875 0.5
vt 0.125 0.6875
vt 0.1875 0.6875
vt 0.1875 0.5
vt 0.125 0.5
vt 0.125 0.6875
vt 0.0625 0.6875
vt 0.0625 0.75
vt 0.125 0.75
vt 0.1875 0.75
vt 0.125 0.75
vt 0.125 0.6875
vt 0.1875 0.6875
vn 5.79652735677401e-17 1 -4.402899650974004e-16
vn 0.9914448613738105 4.4206212158446357e-17 0.1305261922200516
vn -5.79652735677401e-17 -1 4.402899650974004e-16
vn -0.9914448613738105 -4.4206212158446357e-17 -0.1305261922200516
vn -0.13052619222005157 4.421013798963923e-16 0.9914448613738104
vn 0.13052619222005157 -4.421013798963923e-16 -0.9914448613738104
usemtl m_711baa8b-e285-70ee-fc17-d4397ecf5eae
f 76/220/55 79/219/55 77/218/55 74/217/55
f 75/224/56 76/223/56 74/222/56 73/221/56
f 80/228/57 75/227/57 73/226/57 78/225/57
f 79/232/58 80/231/58 78/230/58 77/229/58
f 78/236/59 73/235/59 74/234/59 77/233/59
f 79/240/60 76/239/60 75/238/60 80/237/60
o left_pants
v 0.019999904790335532 0.609375 0.034380390573136244
v 0.019999904790335532 0.890625 0.034380390573136244
v -0.11566273401195377 0.6093749999999998 -0.735000666467651
v -0.11566273401195379 0.8906249999999998 -0.7350006664676512
v -0.2569772757443479 0.890625 0.08321894054196044
v -0.2569772757443479 0.609375 0.08321894054196044
v -0.39263991454663727 0.8906249999999998 -0.6861621164988271
v -0.39263991454663727 0.6093749999999998 -0.686162116498827
vt 0.0625 0.1875
vt 0.125 0.1875
vt 0.125 0
vt 0.0625 0
vt 0 0.1875
vt 0.0625 0.1875
vt 0.0625 0
vt 0 0
vt 0.1875 0.1875
vt 0.25 0.1875
vt 0.25 0
vt 0.1875 0
vt 0.125 0.1875
vt 0.1875 0.1875
vt 0.1875 0
vt 0.125 0
vt 0.125 0.1875
vt 0.0625 0.1875
vt 0.0625 0.25
vt 0.125 0.25
vt 0.1875 0.25
vt 0.125 0.25
vt 0.125 0.1875
vt 0.1875 0.1875
vn -5.78364615090078e-17 1 -3.280068726670554e-16
vn 0.9848077530122081 -3.050255545341986e-17 -0.1736481776669304
vn 5.78364615090078e-17 -1 3.280068726670554e-16
vn -0.9848077530122081 3.050255545341986e-17 0.1736481776669304
vn 0.17364817766693036 3.3282657779280604e-16 0.984807753012208
vn -0.17364817766693036 -3.3282657779280604e-16 -0.984807753012208
usemtl m_711baa8b-e285-70ee-fc17-d4397ecf5eae
f 84/244/61 87/243/61 85/242/61 82/241/61
f 83/248/62 84/247/62 82/246/62 81/245/62
f 88/252/63 83/251/63 81/250/63 86/249/63
f 87/256/64 88/255/64 86/254/64 85/253/64
f 86/260/65 81/259/65 82/258/65 85/257/65
f 87/264/66 84/263/66 83/262/66 88/261/66
o left_leg
v 0.0018990308734740113 0.625 0.02170602220836626
v 0.0018990308734740113 0.875 0.02170602220836626
v -0.12833710237672374 0.6249999999999998 -0.7168997925507896
v -0.12833710237672374 0.8749999999999998 -0.7168997925507896
v -0.244302907379578 0.875 0.06511806662509889
v -0.244302907379578 0.625 0.06511806662509889
v -0.3745390406297757 0.8749999999999998 -0.6734877481340571
v -0.3745390406297757 0.6249999999999998 -0.673487748134057
vt 0.3125 0.1875
vt 0.375 0.1875
vt 0.375 0
vt 0.3125 0
vt 0.25 0.1875
vt 0.3125 0.1875
vt 0.3125 0
vt 0.25 0
vt 0.4375 0.1875
vt 0.5 0.1875
vt 0.5 0
vt 0.4375 0
vt 0.375 0.1875
vt 0.4375 0.1875
vt 0.4375 0
vt 0.375 0
vt 0.375 0.1875
vt 0.3125 0.1875
vt 0.3125 0.25
vt 0.375 0.25
vt 0.4375 0.25
vt 0.375 0.25
vt 0.375 0.1875
vt 0.4375 0.1875
vn -5.78364615090078e-17 1 -3.280068726670554e-16
vn 0.9848077530122081 -3.050255545341986e-17 -0.1736481776669304
vn 5.78364615090078e-17 -1 3.280068726670554e-16
vn -0.9848077530122081 3.050255545341986e-17 0.1736481776669304
vn 0.17364817766693036 3.3282657779280604e-16 0.984807753012208
vn -0.17364817766693036 -3.3282657779280604e-16 -0.984807753012208
usemtl m_711baa8b-e285-70ee-fc17-d4397ecf5eae
f 92/268/67 95/267/67 93/266/67 90/265/67
f 91/272/68 92/271/68 90/270/68 89/269/68
f 96/276/69 91/275/69 89/274/69 94/273/69
f 95/280/70 96/279/70 94/278/70 93/277/70
f 94/284/71 89/283/71 90/282/71 93/281/71
f 95/288/72 92/287/72 91/286/72 96/285/72
o cape
v -0.3125 1.5 0.12500000000000003
v -0.3125 1.5 0.18750000000000006
v -0.3125 0.5 0.12500000000000003
v -0.3125 0.5 0.18750000000000006
v 0.3125 1.5 0.18749999999999997
v 0.3125 1.5 0.12499999999999996
v 0.3125 0.5 0.18749999999999997
v 0.3125 0.5 0.12499999999999996
vt 0.015625 0.96875
vt 0.171875 0.96875
vt 0.171875 0.46875
vt 0.015625 0.46875
vt 0 0.96875
vt 0.015625 0.96875
vt 0.015625 0.46875
vt 0 0.46875
vt 0.1875 0.96875
vt 0.34375 0.96875
vt 0.34375 0.46875
vt 0.1875 0.46875
vt 0.171875 0.96875
vt 0.1875 0.96875
vt 0.1875 0.46875
vt 0.171875 0.46875
vt 0.171875 0.96875
vt 0.015625 0.96875
vt 0.015625 1
vt 0.171875 1
vt 0.328125 1
vt 0.171875 1
vt 0.171875 0.96875
vt 0.328125 0.96875
vn 1.2246467991473532e-16 0 1
vn -1 0 1.2246467991473532e-16
vn -1.2246467991473532e-16 0 -1
vn 1 0 -1.2246467991473532e-16
vn 0 1 0
vn 0 -1 0
usemtl m_1c5dd7b9-aaec-32b8-0069-52df28f08762
f 100/292/73 103/291/73 101/290/73 98/289/73
f 99/296/74 100/295/74 98/294/74 97/293/74
f 104/300/75 99/299/75 97/298/75 102/297/75
f 103/304/76 104/303/76 102/302/76 101/301/76
f 102/308/77 97/307/77 98/306/77 101/305/77
f 103/312/78 100/311/78 99/310/78 104/309/78
