# Made in Blockbench 4.12.4
mtllib materials.mtl

o headwear
v 0.28125 2.100700995760483 -0.2095553551856265
v 0.28125 1.8194509957604832 -0.6966946448143733
v 0.28125 1.6135617061317364 0.07169464481437338
v 0.28125 1.3323117061317364 -0.4154446448143734
v -0.28125 1.8194509957604832 -0.6966946448143733
v -0.28125 2.100700995760483 -0.2095553551856265
v -0.28125 1.3323117061317364 -0.4154446448143734
v -0.28125 1.6135617061317364 0.07169464481437338
vt 0.625 0.875
vt 0.75 0.875
vt 0.75 0.75
vt 0.625 0.75
vt 0.5 0.875
vt 0.625 0.875
vt 0.625 0.75
vt 0.5 0.75
vt 0.875 0.875
vt 1 0.875
vt 1 0.75
vt 0.875 0.75
vt 0.75 0.875
vt 0.875 0.875
vt 0.875 0.75
vt 0.75 0.75
vt 0.75 0.875
vt 0.625 0.875
vt 0.625 1
vt 0.75 1
vt 0.875 1
vt 0.75 1
vt 0.75 0.875
vt 0.875 0.875
vn 0 -0.49999999999999994 -0.8660254037844387
vn 1 0 0
vn 0 0.49999999999999994 0.8660254037844387
vn -1 0 0
vn 0 0.8660254037844387 -0.49999999999999994
vn 0 -0.8660254037844387 0.49999999999999994
usemtl m_711baa8b-e285-70ee-fc17-d4397ecf5eae
f 4/4/1 7/3/1 5/2/1 2/1/1
f 3/8/2 4/7/2 2/6/2 1/5/2
f 8/12/3 3/11/3 1/10/3 6/9/3
f 7/16/4 8/15/4 6/14/4 5/13/4
f 6/20/5 1/19/5 2/18/5 5/17/5
f 7/24/6 4/23/6 3/22/6 8/21/6
o head
v 0.25 2.0580127018922196 -0.2209936490538903
v 0.25 1.8080127018922194 -0.6540063509461097
v 0.25 1.625 0.029006350946109705
v 0.25 1.375 -0.4040063509461097
v -0.25 1.8080127018922194 -0.6540063509461097
v -0.25 2.0580127018922196 -0.2209936490538903
v -0.25 1.375 -0.4040063509461097
v -0.25 1.625 0.029006350946109705
vt 0.125 0.875
vt 0.25 0.875
vt 0.25 0.75
vt 0.125 0.75
vt 0 0.875
vt 0.125 0.875
vt 0.125 0.75
vt 0 0.75
vt 0.375 0.875
vt 0.5 0.875
vt 0.5 0.75
vt 0.375 0.75
vt 0.25 0.875
vt 0.375 0.875
vt 0.375 0.75
vt 0.25 0.75
vt 0.25 0.875
vt 0.125 0.875
vt 0.125 1
vt 0.25 1
vt 0.375 1
vt 0.25 1
vt 0.25 0.875
vt 0.375 0.875
vn 0 -0.49999999999999994 -0.8660254037844387
vn 1 0 0
vn 0 0.49999999999999994 0.8660254037844387
vn -1 0 0
vn 0 0.8660254037844387 -0.49999999999999994
vn 0 -0.8660254037844387 0.49999999999999994
usemtl m_711baa8b-e285-70ee-fc17-d4397ecf5eae
f 12/28/7 15/27/7 13/26/7 10/25/7
f 11/32/8 12/31/8 10/30/8 9/29/8
f 16/36/9 11/35/9 9/34/9 14/33/9
f 15/40/10 16/39/10 14/38/10 13/37/10
f 14/44/11 9/43/11 10/42/11 13/41/11
f 15/48/12 12/47/12 11/46/12 16/45/12
o body
v 0.25 1.5375882249380342 -0.06828538115647165
v 0.25 1.4624117750619658 -0.30671461884352835
v 0.25 0.8223005118768639 0.15724396847173316
v 0.25 0.7471240620007956 -0.08118526921532354
v -0.25 1.4624117750619658 -0.30671461884352835
v -0.25 1.5375882249380342 -0.06828538115647165
v -0.25 0.7471240620007956 -0.08118526921532354
v -0.25 0.8223005118768639 0.15724396847173316
vt 0.3125 0.6875
vt 0.4375 0.6875
vt 0.4375 0.5
vt 0.3125 0.5
vt 0.25 0.6875
vt 0.3125 0.6875
vt 0.3125 0.5
vt 0.25 0.5
vt 0.5 0.6875
vt 0.625 0.6875
vt 0.625 0.5
vt 0.5 0.5
vt 0.4375 0.6875
vt 0.5 0.6875
vt 0.5 0.5
vt 0.4375 0.5
vt 0.4375 0.6875
vt 0.3125 0.6875
vt 0.3125 0.75
vt 0.4375 0.75
vt 0.5625 0.75
vt 0.4375 0.75
vt 0.4375 0.6875
vt 0.5625 0.6875
vn 0 -0.30070579950427306 -0.9537169507482269
vn 1 0 0
vn 0 0.30070579950427306 0.9537169507482269
vn -1 0 0
vn 0 0.9537169507482269 -0.30070579950427306
vn 0 -0.9537169507482269 0.30070579950427306
usemtl m_711baa8b-e285-70ee-fc17-d4397ecf5eae
f 20/52/13 23/51/13 21/50/13 18/49/13
f 19/56/14 20/55/14 18/54/14 17/53/14
f 24/60/15 19/59/15 17/58/15 22/57/15
f 23/64/16 24/63/16 22/62/16 21/61/16
f 22/68/17 17/67/17 18/66/17 21/65/17
f 23/72/18 20/71/18 19/70/18 24/69/18
o jacket
v 0.265625 1.5571885804107295 -0.05808208191828479
v 0.265625 1.4726150743001527 -0.3263149743162237
v 0.265625 0.8120972126386771 0.1768443239444285
v 0.265625 0.7275237065281003 -0.09138856845351034
v -0.265625 1.4726150743001527 -0.3263149743162237
v -0.265625 1.5571885804107295 -0.05808208191828479
v -0.265625 0.7275237065281003 -0.09138856845351034
v -0.265625 0.8120972126386771 0.1768443239444285
vt 0.3125 0.4375
vt 0.4375 0.4375
vt 0.4375 0.25
vt 0.3125 0.25
vt 0.25 0.4375
vt 0.3125 0.4375
vt 0.3125 0.25
vt 0.25 0.25
vt 0.5 0.4375
vt 0.625 0.4375
vt 0.625 0.25
vt 0.5 0.25
vt 0.4375 0.4375
vt 0.5 0.4375
vt 0.5 0.25
vt 0.4375 0.25
vt 0.4375 0.4375
vt 0.3125 0.4375
vt 0.3125 0.5
vt 0.4375 0.5
vt 0.5625 0.5
vt 0.4375 0.5
vt 0.4375 0.4375
vt 0.5625 0.4375
vn 0 -0.30070579950427306 -0.9537169507482269
vn 1 0 0
vn 0 0.30070579950427306 0.9537169507482269
vn -1 0 0
vn 0 0.9537169507482269 -0.30070579950427306
vn 0 -0.9537169507482269 0.30070579950427306
usemtl m_711baa8b-e285-70ee-fc17-d4397ecf5eae
f 28/76/19 31/75/19 29/74/19 26/73/19
f 27/80/20 28/79/20 26/78/20 25/77/20
f 32/84/21 27/83/21 25/82/21 30/81/21
f 31/88/22 32/87/22 30/86/22 29/85/22
f 30/92/23 25/91/23 26/90/23 29/89/23
f 31/96/24 28/95/24 27/94/24 32/93/24
o right_sleeve
v 0.43893218253558486 1.2119430853168116 -0.01666293290178844
v 0.5270972838929762 1.4247924687418245 0.1446554398219435
v 0.6104151508063307 1.625939593032042 -0.6566254675025631
v 0.6985802521637221 1.8387889764570546 -0.4953070947788314
v 0.2672561653741768 1.5324221840945058 0.1446554398219435
v 0.17909106401678548 1.3195728006694933 -0.01666293290178844
v 0.4387391336449227 1.9464186918097361 -0.4953070947788314
v 0.35057403228753137 1.7335693083847232 -0.6566254675025631
vt 0.6875 0.4375
vt 0.75 0.4375
vt 0.75 0.25
vt 0.6875 0.25
vt 0.625 0.4375
vt 0.6875 0.4375
vt 0.6875 0.25
vt 0.625 0.25
vt 0.8125 0.4375
vt 0.875 0.4375
vt 0.875 0.25
vt 0.8125 0.25
vt 0.75 0.4375
vt 0.8125 0.4375
vt 0.8125 0.25
vt 0.75 0.25
vt 0.75 0.4375
vt 0.6875 0.4375
vt 0.6875 0.5
vt 0.75 0.5
vt 0.8125 0.5
vt 0.75 0.5
vt 0.75 0.4375
vt 0.8125 0.4375
vn 0.3134759159373913 0.7567978077333785 0.5735764363510463
vn 0.923879532511287 -0.3826834323650897 0
vn -0.3134759159373913 -0.7567978077333785 -0.5735764363510463
vn -0.923879532511287 0.3826834323650897 0
vn -0.21949819938655485 -0.5299155298754944 0.8191520442889918
vn 0.21949819938655485 0.5299155298754944 -0.8191520442889918
usemtl m_711baa8b-e285-70ee-fc17-d4397ecf5eae
f 36/100/25 39/99/25 37/98/25 34/97/25
f 35/104/26 36/103/26 34/102/26 33/101/26
f 40/108/27 35/107/27 33/106/27 38/105/27
f 39/112/28 40/111/28 38/110/28 37/109/28
f 38/116/29 33/115/29 34/114/29 37/113/29
f 39/120/30 36/119/30 35/118/30 40/117/30
o right_arm
v 0.43282428539203266 1.2380274098476551 -0.020500051775818928
v 0.5111932643763805 1.4272268617809996 0.1228940573119428
v 0.5974479349319488 1.6354640572542758 -0.6348640849925625
v 0.6758169139162966 1.8246635091876207 -0.491469975904801
v 0.2802233812485588 1.522897719872272 0.1228940573119428
v 0.20185440226421097 1.3336982679389275 -0.020500051775818928
v 0.4448470307884749 1.920334367278893 -0.491469975904801
v 0.36647805180412707 1.7311349153455482 -0.6348640849925625
vt 0.6875 0.6875
vt 0.75 0.6875
vt 0.75 0.5
vt 0.6875 0.5
vt 0.625 0.6875
vt 0.6875 0.6875
vt 0.6875 0.5
vt 0.625 0.5
vt 0.8125 0.6875
vt 0.875 0.6875
vt 0.875 0.5
vt 0.8125 0.5
vt 0.75 0.6875
vt 0.8125 0.6875
vt 0.8125 0.5
vt 0.75 0.5
vt 0.75 0.6875
vt 0.6875 0.6875
vt 0.6875 0.75
vt 0.75 0.75
vt 0.8125 0.75
vt 0.75 0.75
vt 0.75 0.6875
vt 0.8125 0.6875
vn 0.3134759159373913 0.7567978077333785 0.5735764363510463
vn 0.923879532511287 -0.3826834323650897 0
vn -0.3134759159373913 -0.7567978077333785 -0.5735764363510463
vn -0.923879532511287 0.3826834323650897 0
vn -0.21949819938655485 -0.5299155298754944 0.8191520442889918
vn 0.21949819938655485 0.5299155298754944 -0.8191520442889918
usemtl m_711baa8b-e285-70ee-fc17-d4397ecf5eae
f 44/124/31 47/123/31 45/122/31 42/121/31
f 43/128/32 44/127/32 42/126/32 41/125/32
f 48/132/33 43/131/33 41/130/33 46/129/33
f 47/136/34 48/135/34 46/134/34 45/133/34
f 46/140/35 41/139/35 42/138/35 45/137/35
f 47/144/36 44/143/36 43/142/36 48/141/36
o left_sleeve
v -0.13734610590873875 1.3253414602774236 -0.3068369956162631
v -0.13734610590873852 1.5153512061693277 -0.09947774463841519
v -0.6395239259763477 1.7665814656687955 -0.7111589677799914
v -0.6395239259763474 1.9565912115606998 -0.5037997168021435
v -0.3527961055359511 1.3820632488868858 0.022658165740588654
v -0.3527961055359513 1.1920535029949817 -0.18470108523725903
v -0.85497392560356 1.823303254278258 -0.3816638064231397
v -0.8549739256035602 1.6332935083863538 -0.5890230574009874
vt 0.8125 0.1875
vt 0.875 0.1875
vt 0.875 0
vt 0.8125 0
vt 0.75 0.1875
vt 0.8125 0.1875
vt 0.8125 0
vt 0.75 0
vt 0.9375 0.1875
vt 1 0.1875
vt 1 0
vt 0.9375 0
vt 0.875 0.1875
vt 0.9375 0.1875
vt 0.9375 0
vt 0.875 0
vt 0.875 0.1875
vt 0.8125 0.1875
vt 0.8125 0.25
vt 0.875 0.25
vt 0.9375 0.25
vt 0.875 0.25
vt 0.875 0.1875
vt 0.9375 0.1875
vn 6.383782391594647e-16 0.675590207615659 0.7372773368101251
vn 0.7660444431189782 0.47391273700423764 -0.43426101468090256
vn -6.383782391594647e-16 -0.675590207615659 -0.7372773368101251
vn -0.7660444431189782 -0.47391273700423764 0.43426101468090256
vn 0.6427876096865396 -0.5647872069009555 0.517532124369572
vn -0.6427876096865396 0.5647872069009555 -0.517532124369572
usemtl m_711baa8b-e285-70ee-fc17-d4397ecf5eae
f 52/148/37 55/147/37 53/146/37 50/145/37
f 51/152/38 52/151/38 50/150/38 49/149/38
f 56/156/39 51/155/39 49/154/39 54/153/39
f 55/160/40 56/159/40 54/158/40 53/157/40
f 54/164/41 49/163/41 50/162/41 53/161/41
f 55/168/42 52/167/42 51/166/42 56/165/42
o left_arm
v -0.15935910673382492 1.3373174708635545 -0.2966181483174902
v -0.1593591067338247 1.5062150227674693 -0.1122988141149589
v -0.6414498139987295 1.7609078760392716 -0.6847672415946695
v -0.6414498139987294 1.9298054279431864 -0.5004479073921382
v -0.35087021751356917 1.38773683851641 -0.003733560444733275
v -0.3508702175135694 1.218839286612495 -0.1880528946472646
v -0.8329609247784738 1.811327243692127 -0.39188265372191244
v -0.8329609247784739 1.6424296917882122 -0.5762019879244438
vt 0.5625 0.1875
vt 0.625 0.1875
vt 0.625 0
vt 0.5625 0
vt 0.5 0.1875
vt 0.5625 0.1875
vt 0.5625 0
vt 0.5 0
vt 0.6875 0.1875
vt 0.75 0.1875
vt 0.75 0
vt 0.6875 0
vt 0.625 0.1875
vt 0.6875 0.1875
vt 0.6875 0
vt 0.625 0
vt 0.625 0.1875
vt 0.5625 0.1875
vt 0.5625 0.25
vt 0.625 0.25
vt 0.6875 0.25
vt 0.625 0.25
vt 0.625 0.1875
vt 0.6875 0.1875
vn 6.383782391594647e-16 0.675590207615659 0.7372773368101251
vn 0.7660444431189782 0.47391273700423764 -0.43426101468090256
vn -6.383782391594647e-16 -0.675590207615659 -0.7372773368101251
vn -0.7660444431189782 -0.47391273700423764 0.43426101468090256
vn 0.6427876096865396 -0.5647872069009555 0.517532124369572
vn -0.6427876096865396 0.5647872069009555 -0.517532124369572
usemtl m_711baa8b-e285-70ee-fc17-d4397ecf5eae
f 60/172/43 63/171/43 61/170/43 58/169/43
f 59/176/44 60/175/44 58/174/44 57/173/44
f 64/180/45 59/179/45 57/178/45 62/177/45
f 63/184/46 64/183/46 62/182/46 61/181/46
f 62/188/47 57/187/47 58/186/47 61/185/47
f 63/192/48 60/191/48 59/190/48 64/189/48
o right_pants
v 0.18417714579564748 0.868899600345373 0.23476919176210093
v 0.19457952512330878 0.9116790222572296 -0.04301359039908842
v 0.7165261527893448 0.30109789151144783 0.16726129075711385
v 0.7269285321170061 0.34387731342330463 -0.1105214914040755
v -0.01100573871700028 0.7232948360817575 -0.07972408196097794
v -0.021408118044661584 0.6805154141699008 0.1980587002002114
v 0.5213432682766971 0.15549312724783249 -0.147231982965965
v 0.5109408889490358 0.11271370533597569 0.13055079919522433
vt 0.0625 0.4375
vt 0.125 0.4375
vt 0.125 0.25
vt 0.0625 0.25
vt 0 0.4375
vt 0.0625 0.4375
vt 0.0625 0.25
vt 0 0.25
vt 0.1875 0.4375
vt 0.25 0.4375
vt 0.25 0.25
vt 0.1875 0.25
vt 0.125 0.4375
vt 0.1875 0.4375
vt 0.1875 0.25
vt 0.125 0.25
vt 0.125 0.4375
vt 0.0625 0.4375
vt 0.0625 0.5
vt 0.125 0.5
vt 0.1875 0.5
vt 0.125 0.5
vt 0.125 0.4375
vt 0.1875 0.4375
vn 0.03698623760946256 0.1521046112421575 -0.9876721143508957
vn 0.7309698269877657 0.669810439735012 0.13052619222005163
vn -0.03698623760946256 -0.1521046112421575 0.9876721143508957
vn -0.7309698269877657 -0.669810439735012 -0.13052619222005163
vn -0.6814067289519324 0.7267861873074241 0.08641011328638343
vn 0.6814067289519324 -0.7267861873074241 -0.08641011328638343
usemtl m_711baa8b-e285-70ee-fc17-d4397ecf5eae
f 68/196/49 71/195/49 69/194/49 66/193/49
f 67/200/50 68/199/50 66/198/50 65/197/50
f 72/204/51 67/203/51 65/202/51 70/201/51
f 71/208/52 72/207/52 70/206/52 69/205/52
f 70/212/53 65/211/53 66/210/53 69/209/53
f 71/216/54 68/215/54 67/214/54 72/213/54
o right_leg
v 0.18398063235148548 0.8494544125984935 0.21594718520183015
v 0.1932271917538511 0.887480565409033 -0.03097084338589373
v 0.6950356790654348 0.30436477211792545 0.15113960023704254
v 0.7042822384678005 0.34239092492846485 -0.09577842835068133
v 0.010484735006909718 0.7200279554752799 -0.06360239144090664
v 0.0012381756045440895 0.6820018026647405 0.18331563714681723
v 0.5215397817208591 0.17493831499471185 -0.12840997640569424
v 0.5122932223184935 0.13691216218417251 0.11850805218202964
vt 0.0625 0.6875
vt 0.125 0.6875
vt 0.125 0.5
vt 0.0625 0.5
vt 0 0.6875
vt 0.0625 0.6875
vt 0.0625 0.5
vt 0 0.5
vt 0.1875 0.6875
vt 0.25 0.6875
vt 0.25 0.5
vt 0.1875 0.5
vt 0.125 0.6875
vt 0.1875 0.6875
vt 0.1875 0.5
vt 0.125 0.5
vt 0.125 0.6875
vt 0.0625 0.6875
vt 0.0625 0.75
vt 0.125 0.75
vt 0.1875 0.75
vt 0.125 0.75
vt 0.125 0.6875
vt 0.1875 0.6875
vn 0.03698623760946256 0.1521046112421575 -0.9876721143508957
vn 0.7309698269877657 0.669810439735012 0.13052619222005163
vn -0.03698623760946256 -0.1521046112421575 0.9876721143508957
vn -0.7309698269877657 -0.669810439735012 -0.13052619222005163
vn -0.6814067289519324 0.7267861873074241 0.08641011328638343
vn 0.6814067289519324 -0.7267861873074241 -0.08641011328638343
usemtl m_711baa8b-e285-70ee-fc17-d4397ecf5eae
f 76/220/55 79/219/55 77/218/55 74/217/55
f 75/224/56 76/223/56 74/222/56 73/221/56
f 80/228/57 75/227/57 73/226/57 78/225/57
f 79/232/58 80/231/58 78/230/58 77/229/58
f 78/236/59 73/235/59 74/234/59 77/233/59
f 79/240/60 76/239/60 75/238/60 80/237/60
o left_leg
v 0 0.7391055321565427 0.1870243372614682
v 0 0.7608944678434573 -0.06202433726146819
v 0 -0.008040491412266487 0.12165753020072456
v 0 0.013748444274648058 -0.12739114432221182
v -0.25 0.7608944678434573 -0.06202433726146819
v -0.25 0.7391055321565427 0.1870243372614682
v -0.25 0.013748444274648058 -0.12739114432221182
v -0.25 -0.008040491412266487 0.12165753020072456
vt 0.3125 0.1875
vt 0.375 0.1875
vt 0.375 0
vt 0.3125 0
vt 0.25 0.1875
vt 0.3125 0.1875
vt 0.3125 0
vt 0.25 0
vt 0.4375 0.1875
vt 0.5 0.1875
vt 0.5 0
vt 0.4375 0
vt 0.375 0.1875
vt 0.4375 0.1875
vt 0.4375 0
vt 0.375 0
vt 0.375 0.1875
vt 0.3125 0.1875
vt 0.3125 0.25
vt 0.375 0.25
vt 0.4375 0.25
vt 0.375 0.25
vt 0.375 0.1875
vt 0.4375 0.1875
vn 0 0.08715574274765818 -0.9961946980917455
vn 1 0 0
vn 0 -0.08715574274765818 0.9961946980917455
vn -1 0 0
vn 0 0.9961946980917455 0.08715574274765818
vn 0 -0.9961946980917455 -0.08715574274765818
usemtl m_711baa8b-e285-70ee-fc17-d4397ecf5eae
f 84/244/61 87/243/61 85/242/61 82/241/61
f 83/248/62 84/247/62 82/246/62 81/245/62
f 88/252/63 83/251/63 81/250/63 86/249/63
f 87/256/64 88/255/64 86/254/64 85/253/64
f 86/260/65 81/259/65 82/258/65 85/257/65
f 87/264/66 84/263/66 83/262/66 88/261/66
o left_pants
v 0.015625 0.753309265833794 0.20395168789958387
v 0.015625 0.777821818481573 -0.07622807093871956
v 0.015625 -0.024967842050382168 0.13586126387797592
v 0.015625 -0.0004552894026033077 -0.1443184949603275
v -0.265625 0.777821818481573 -0.07622807093871956
v -0.265625 0.753309265833794 0.20395168789958387
v -0.265625 -0.0004552894026033077 -0.1443184949603275
v -0.265625 -0.024967842050382168 0.13586126387797592
vt 0.0625 0.1875
vt 0.125 0.1875
vt 0.125 0
vt 0.0625 0
vt 0 0.1875
vt 0.0625 0.1875
vt 0.0625 0
vt 0 0
vt 0.1875 0.1875
vt 0.25 0.1875
vt 0.25 0
vt 0.1875 0
vt 0.125 0.1875
vt 0.1875 0.1875
vt 0.1875 0
vt 0.125 0
vt 0.125 0.1875
vt 0.0625 0.1875
vt 0.0625 0.25
vt 0.125 0.25
vt 0.1875 0.25
vt 0.125 0.25
vt 0.125 0.1875
vt 0.1875 0.1875
vn 0 0.08715574274765818 -0.9961946980917455
vn 1 0 0
vn 0 -0.08715574274765818 0.9961946980917455
vn -1 0 0
vn 0 0.9961946980917455 0.08715574274765818
vn 0 -0.9961946980917455 -0.08715574274765818
usemtl m_711baa8b-e285-70ee-fc17-d4397ecf5eae
f 92/268/67 95/267/67 93/266/67 90/265/67
f 91/272/68 92/271/68 90/270/68 89/269/68
f 96/276/69 91/275/69 89/274/69 94/273/69
f 95/280/70 96/279/70 94/278/70 93/277/70
f 94/284/71 89/283/71 90/282/71 93/281/71
f 95/288/72 92/287/72 91/286/72 96/285/72
